<svg width="25" height="25" viewBox="0 0 25 25" fill="none" xmlns="http://www.w3.org/2000/svg">
<mask id="path-1-inside-1_161_462" fill="white">
<path fill-rule="evenodd" clip-rule="evenodd" d="M18.1286 14.9568C19.2934 13.6352 20 11.9001 20 10C20 5.85786 16.6421 2.5 12.5 2.5C8.35786 2.5 5 5.85786 5 10C5 11.6402 5.5265 13.1574 6.41971 14.3918L11.2676 22.3829C11.6432 23.002 12.5318 23.0291 12.9444 22.434L18.1286 14.9568Z"/>
</mask>
<path d="M18.1286 14.9568L17.0033 13.965L16.9456 14.0305L16.8959 14.1022L18.1286 14.9568ZM6.41971 14.3918L7.70216 13.6138L7.67061 13.5618L7.63495 13.5125L6.41971 14.3918ZM11.2676 22.3829L9.98519 23.161L9.98519 23.161L11.2676 22.3829ZM12.9444 22.434L14.1771 23.2887H14.1771L12.9444 22.434ZM18.5 10C18.5 11.5211 17.9359 12.9069 17.0033 13.965L19.2539 15.9486C20.6509 14.3636 21.5 12.2791 21.5 10H18.5ZM12.5 4C15.8137 4 18.5 6.68629 18.5 10H21.5C21.5 5.02944 17.4706 1 12.5 1V4ZM6.5 10C6.5 6.68629 9.18629 4 12.5 4V1C7.52944 1 3.5 5.02944 3.5 10H6.5ZM7.63495 13.5125C6.92066 12.5253 6.5 11.314 6.5 10H3.5C3.5 11.9664 4.13234 13.7894 5.20447 15.2712L7.63495 13.5125ZM12.5501 21.6049L7.70216 13.6138L5.13726 15.1699L9.98519 23.161L12.5501 21.6049ZM11.7117 21.5794C11.918 21.2818 12.3623 21.2954 12.5501 21.6049L9.98519 23.161C10.9241 24.7087 13.1457 24.7764 14.1771 23.2887L11.7117 21.5794ZM16.8959 14.1022L11.7117 21.5794L14.1771 23.2887L19.3613 15.8115L16.8959 14.1022Z" fill="#A0A0A0" mask="url(#path-1-inside-1_161_462)"/>
<circle cx="12.5" cy="10" r="2.5" fill="#A0A0A0"/>
</svg>
