<svg width="25" height="25" viewBox="0 0 25 25" fill="none" xmlns="http://www.w3.org/2000/svg">
<circle cx="12.5" cy="12.5" r="2.75" stroke="#A0A0A0" stroke-width="1.5"/>
<path d="M19.0333 7.90602L19.5636 8.43636L19.0333 7.90602C18.4792 8.46011 18.3087 9.29109 18.5997 10.0186C18.8972 10.7623 19.6175 11.25 20.4184 11.25H20.7708C21.3116 11.25 21.75 11.6884 21.75 12.2292V12.7708C21.75 13.3116 21.3116 13.75 20.7708 13.75H20.4184C19.6174 13.75 18.8972 14.2377 18.5997 14.9814C18.3087 15.7089 18.4792 16.5399 19.0333 17.094L19.2644 17.3251C19.6372 17.6978 19.6372 18.3022 19.2644 18.6749L18.6749 19.2644C18.3022 19.6372 17.6978 19.6372 17.3251 19.2644L17.094 19.0333C16.5399 18.4792 15.7089 18.3087 14.9814 18.5997C14.2377 18.8972 13.75 19.6175 13.75 20.4184V20.7708C13.75 21.3116 13.3116 21.75 12.7708 21.75H12.2292C11.6884 21.75 11.25 21.3116 11.25 20.7708V20.4184C11.25 19.6174 10.7623 18.8972 10.0186 18.5997C9.29109 18.3087 8.46011 18.4792 7.90602 19.0333L7.67493 19.2644C7.30218 19.6372 6.69782 19.6372 6.32507 19.2644L5.73559 18.6749C5.36284 18.3022 5.36284 17.6978 5.73559 17.3251L5.96669 17.094L5.43636 16.5636L5.96669 17.094C6.52077 16.5399 6.69134 15.7089 6.40032 14.9814C6.10284 14.2377 5.38255 13.75 4.58156 13.75H4.22924C3.68842 13.75 3.25 13.3116 3.25 12.7708V12.2292C3.25 11.6884 3.68842 11.25 4.22924 11.25H4.58157C5.38255 11.25 6.10284 10.7623 6.40032 10.0186C6.69134 9.29109 6.52077 8.46011 5.96668 7.90602L5.73559 7.67493C5.36284 7.30218 5.36284 6.69782 5.73559 6.32507L6.32507 5.73559C6.69782 5.36284 7.30218 5.36284 7.67493 5.73559L7.90603 5.96669C8.46011 6.52077 9.29109 6.69134 10.0186 6.40032C10.7623 6.10284 11.25 5.38255 11.25 4.58156V4.22924C11.25 3.68842 11.6884 3.25 12.2292 3.25H12.7708C13.3116 3.25 13.75 3.68842 13.75 4.22924V4.58157C13.75 5.38255 14.2377 6.10284 14.9814 6.40032C15.7089 6.69134 16.5399 6.52077 17.094 5.96668L17.3251 5.73559C17.6978 5.36284 18.3022 5.36284 18.6749 5.73559L19.2644 6.32507C19.6372 6.69782 19.6372 7.30218 19.2644 7.67493L19.0333 7.90602Z" stroke="#A0A0A0" stroke-width="1.5"/>
</svg>
