<svg width="50" height="50" viewBox="0 0 50 50" fill="none" xmlns="http://www.w3.org/2000/svg">
<path d="M25.0045 14.7445C19.3291 14.7445 14.7513 19.3233 14.7513 25C14.7513 30.6767 19.3291 35.2555 25.0045 35.2555C30.6799 35.2555 35.2577 30.6767 35.2577 25C35.2577 19.3233 30.6799 14.7445 25.0045 14.7445ZM25.0045 31.6674C21.3369 31.6674 18.3385 28.6773 18.3385 25C18.3385 21.3227 21.3279 18.3326 25.0045 18.3326C28.681 18.3326 31.6704 21.3227 31.6704 25C31.6704 28.6773 28.6721 31.6674 25.0045 31.6674ZM38.0686 14.325C38.0686 15.6549 36.9978 16.7171 35.6771 16.7171C34.3475 16.7171 33.2856 15.646 33.2856 14.325C33.2856 13.004 34.3564 11.9329 35.6771 11.9329C36.9978 11.9329 38.0686 13.004 38.0686 14.325ZM44.8595 16.7528C44.7078 13.5485 43.976 10.7101 41.6291 8.37164C39.2911 6.03314 36.4534 5.30124 33.2499 5.14058C29.9481 4.95314 20.0519 4.95314 16.7501 5.14058C13.5555 5.29231 10.7178 6.02421 8.37089 8.36271C6.02398 10.7012 5.30117 13.5396 5.14055 16.7438C4.95315 20.0463 4.95315 29.9448 5.14055 33.2472C5.29225 36.4515 6.02398 39.2899 8.37089 41.6284C10.7178 43.9669 13.5466 44.6988 16.7501 44.8594C20.0519 45.0469 29.9481 45.0469 33.2499 44.8594C36.4534 44.7077 39.2911 43.9758 41.6291 41.6284C43.9671 39.2899 44.6988 36.4515 44.8595 33.2472C45.0469 29.9448 45.0469 20.0552 44.8595 16.7528ZM40.594 36.7907C39.8979 38.5401 38.5505 39.8879 36.7925 40.593C34.1601 41.6373 27.9136 41.3963 25.0045 41.3963C22.0954 41.3963 15.8399 41.6284 13.2164 40.593C11.4674 39.8968 10.1199 38.549 9.41495 36.7907C8.37089 34.1576 8.61182 27.9097 8.61182 25C8.61182 22.0903 8.37981 15.8334 9.41495 13.2093C10.111 11.4599 11.4584 10.1121 13.2164 9.40701C15.8489 8.36271 22.0954 8.6037 25.0045 8.6037C27.9136 8.6037 34.169 8.37164 36.7925 9.40701C38.5416 10.1032 39.889 11.451 40.594 13.2093C41.638 15.8424 41.3971 22.0903 41.3971 25C41.3971 27.9097 41.638 34.1666 40.594 36.7907Z" fill="white"/>
</svg>
