<svg width="50" height="50" viewBox="0 0 50 50" fill="none" xmlns="http://www.w3.org/2000/svg">
<path d="M25 9C25.0384 9 39.078 9.00084 42.5811 9.94043C44.5181 10.4591 46.04 11.9819 46.5586 13.9189C47.4915 17.4109 47.4999 24.6839 47.5 24.75C47.5 24.75 47.4995 32.0741 46.5586 35.582C46.04 37.519 44.518 39.041 42.5811 39.5596C39.078 40.4992 25.0384 40.501 25 40.501C25 40.501 10.9269 40.5005 7.41895 39.5596C5.48187 39.041 3.95904 37.5191 3.44043 35.582C2.49953 32.0741 2.5 24.75 2.5 24.75C2.50002 24.6839 2.50381 17.4109 3.44043 13.9189C3.95905 11.9818 5.48177 10.4591 7.41895 9.94043C10.9269 8.99955 25 9 25 9ZM20.4961 31.5L32.1865 24.751L20.4961 18.002V31.5Z" fill="white"/>
</svg>
